PathFileType	4	(X/Y/Z)	LAnkleTrial15.trc
DataRate	CameraRate	NumFrames	NumMarkers	Units	OrigDataRate	OrigDataStartFrame	OrigNumFrames
50	100	4	33	m	100	50	       1001
Frame#	Time	R_Toe			R_Heel			Neck			R_Wrist			L_Shank_Superior			R_Midfoot_Superior			L_Midfoot_Superior			L_Toe			L_Shank_Inferior			L_Heel			L_Shoulder			R_Midfoot_Lateral			L_Patella			L_Thigh_Inferior			R_Shank_Lateral			R_Shank_Inferior			R_Shoulder			L_Shank_Lateral			R_Elbow			R_Thigh_Lateral			L_Wrist			Sternum			L_Elbow			L_Thigh_Superior			L_Asis			L_Thigh_Lateral			L_Midfoot_Lateral			R_Thigh_Superior			R_Shank_Superior			R_Thigh_Inferior			Sacral			R_Patella			R_Asis			
		X1	Y1	Z1	X2	Y2	Z2	X3	Y3	Z3	X4	Y4	Z4	X5	Y5	Z5	X6	Y6	Z6	X7	Y7	Z7	X8	Y8	Z8	X9	Y9	Z9	X10	Y10	Z10	X11	Y11	Z11	X12	Y12	Z12	X13	Y13	Z13	X14	Y14	Z14	X15	Y15	Z15	X16	Y16	Z16	X17	Y17	Z17	X18	Y18	Z18	X19	Y19	Z19	X20	Y20	Z20	X21	Y21	Z21	X22	Y22	Z22	X23	Y23	Z23	X24	Y24	Z24	X25	Y25	Z25	X26	Y26	Z26	X27	Y27	Z27	X28	Y28	Z28	X29	Y29	Z29	X30	Y30	Z30	X31	Y31	Z31	X32	Y32	Z32	X33	Y33	Z33

50	   0.980	    0.74703306232099	    0.03954030974678	    0.62229841942331	    0.44931435576703	    0.03852700854123	    0.59150597495628	    0.50436179125123	    1.48194503303112	    0.66152972544990	    0.63494617795784	    1.13141504986791	    1.20465839704717	    0.88078184493286	    0.52068853766842	    0.43321332512136	    0.62287792365967	    0.09098740950781	    0.61487772996722	    1.06167737023023	    0.20419471552092	    0.44950025791568	    1.15063890799356	    0.12677588705140	    0.50475987349969	    0.94443469148533	    0.37797607273960	    0.42426688609721	    0.88466707799597	    0.19098424018228	    0.39215492154476	    0.56066905858433	    1.47279827758444	    0.52455271948671	    0.53235369890463	    0.03073740609720	    0.65589392257071	    0.85465764795647	    0.63277573796829	    0.47624742471395	    0.79692561568861	    0.73164101262471	    0.47335906797097	    0.53386183467331	    0.34363334838921	    0.72586157635985	    0.58834408804727	    0.21518648683670	    0.64691478657838	    0.52466977756982	    1.43338761536383	    0.80598546429974	    0.83842500174468	    0.44310574133031	    0.35982488396922	    0.45230950105080	    1.16178118358370	    1.01648320293470	    0.59667860780622	    0.66047371204609	    0.76428459453622	    0.70929281865473	    1.30585458308338	    0.52006005155448	    0.64045494814301	    1.38361739895857	    0.66729154377418	    0.58468655049950	    1.18260644019427	    0.34003415549179	    0.74554188139965	    0.84122148834849	    0.47619835967981	    0.61653875702693	    0.99673834294742	    0.47912645532894	    0.70597033848164	    0.74362065122162	    0.40490295480973	    0.97988302821879	    0.15699811592960	    0.37770390774688	    0.68936834156363	    0.71743623427118	    0.71992134330514	    0.62239781433152	    0.38528030135379	    0.68475989597332	    0.67521964653885	    0.60375551563593	    0.69779228377476	    0.45891848627574	    0.99259008191796	    0.62656228571469	    0.65839361385742	    0.49312202507608	    0.68243488949834	    0.64502839376020	    0.98009574849406	    0.73986956279844
51	   1.000	    0.74704151426982	    0.03947398534515	    0.62228736018766	    0.44932622877597	    0.03851740242458	    0.59149034509659	    0.50465333266919	    1.48190648711725	    0.66167715958804	    0.63486127002996	    1.13171502003779	    1.20488128191378	    0.87965434754915	    0.52009366141824	    0.43112985109060	    0.62287917569459	    0.09090981254101	    0.61483693443260	    1.06004712361785	    0.20247358912104	    0.44442830080929	    1.14977852482460	    0.12315517951952	    0.49584619612507	    0.94277692226418	    0.37720465135734	    0.42162823064002	    0.88178958427448	    0.19107962002203	    0.39041245050368	    0.56096883813683	    1.47273684596852	    0.52471264093443	    0.53235657757843	    0.03075068592084	    0.65589292843680	    0.85422080272447	    0.63222887314892	    0.47457446291881	    0.79654838736046	    0.73125489325201	    0.47216146110066	    0.53417847987922	    0.34351530256748	    0.72573103589186	    0.58851727423341	    0.21511808703456	    0.64663826349606	    0.52496212696309	    1.43338716396811	    0.80615870756883	    0.83645582923012	    0.44263152550067	    0.35809409715117	    0.45226904046492	    1.16181905277916	    1.01658037192915	    0.59726155303487	    0.66035371976442	    0.76426158222814	    0.70967130594489	    1.30588093634484	    0.52028600729071	    0.64078897369528	    1.38364046355844	    0.66747440099039	    0.58516409802504	    1.18249315363620	    0.34030120104260	    0.74534499710661	    0.84089952384010	    0.47552177389883	    0.61660170934749	    0.99668582822659	    0.47921175414760	    0.70528346001912	    0.74351479756827	    0.40419818232439	    0.97655300116915	    0.15723822733130	    0.37317574916067	    0.68983313334219	    0.71727954235864	    0.71955946198741	    0.62260741823651	    0.38527151223682	    0.68454348119284	    0.67547936042456	    0.60362694712337	    0.69739844169154	    0.45931506676671	    0.99258094262279	    0.62706988837994	    0.65845381568452	    0.49305157385251	    0.68202881190895	    0.64568098483711	    0.97995225309423	    0.73992194536613
52	   1.020	    0.74705419129574	    0.03943399794990	    0.62228473983852	    0.44933367858207	    0.03850497608062	    0.59148385212848	    0.50492470672640	    1.48186951885581	    0.66185691905930	    0.63477308418496	    1.13203754769693	    1.20512456353031	    0.87849919664593	    0.51957611519396	    0.42898499573657	    0.62287846402361	    0.09085302444423	    0.61481463644827	    1.05844836431075	    0.20093956965177	    0.43917411471114	    1.14897278340586	    0.11988293525125	    0.48657313728274	    0.94113077571263	    0.37651640318509	    0.41891679159417	    0.87897913284572	    0.19118173032622	    0.38873265010546	    0.56122112107594	    1.47266624930900	    0.52489237701034	    0.53235881751324	    0.03075573432095	    0.65589712890037	    0.85373992469423	    0.63175523225337	    0.47283928675482	    0.79610822368948	    0.73092538598142	    0.47090348050733	    0.53449865886162	    0.34340518132808	    0.72568026652555	    0.58866390991535	    0.21505235793538	    0.64643253916331	    0.52524448450886	    1.43338612968169	    0.80635668104581	    0.83446003280399	    0.44221023618959	    0.35634371820385	    0.45219330421885	    1.16188389382530	    1.01672725753869	    0.59784324532794	    0.66023859591624	    0.76428002924365	    0.70997140637219	    1.30587270914382	    0.52050759282059	    0.64108554866524	    1.38364214959078	    0.66766440626192	    0.58551234653688	    1.18236569139744	    0.34058593211656	    0.74506096414729	    0.84061581436390	    0.47479226863615	    0.61656665752238	    0.99663964498779	    0.47930620076111	    0.70449218194844	    0.74342046745734	    0.40348285857329	    0.97323666781020	    0.15762687162058	    0.36861246106200	    0.69028119003386	    0.71714155514469	    0.71924238143921	    0.62282446870659	    0.38523578146191	    0.68437314124603	    0.67575741560261	    0.60351475250951	    0.69706023653461	    0.45963872688690	    0.99255566541752	    0.62761507907451	    0.65857706377344	    0.49297814614986	    0.68168790667002	    0.64627828719110	    0.97981660574945	    0.73998296163333
53	   1.040	    0.74707113103517	    0.03942136983270	    0.62228928027018	    0.44933659249771	    0.03849170661819	    0.59148879486870	    0.50516596056546	    1.48183363149336	    0.66207749758689	    0.63469835712170	    1.13237101173476	    1.20538424004475	    0.87733183411252	    0.51913525517364	    0.42679872756764	    0.62287827854799	    0.09082138568934	    0.61481164417304	    1.05685345434321	    0.19958029004290	    0.43382068725104	    1.14814032210661	    0.11695384297330	    0.47714183160892	    0.93950128978979	    0.37590559328537	    0.41614911545181	    0.87624511043598	    0.19128949906766	    0.38707123580814	    0.56141206085412	    1.47259035937668	    0.52509861485032	    0.53236130549512	    0.03075145498640	    0.65590684391330	    0.85322690424118	    0.63135283603057	    0.47106135031706	    0.79561541259134	    0.73065232266034	    0.46960569388559	    0.53480585559073	    0.34331031928384	    0.72572092045341	    0.58877634894197	    0.21499389214038	    0.64632077618568	    0.52551320319917	    1.43338201005253	    0.80658536380412	    0.83246161272865	    0.44185142534063	    0.35457254084968	    0.45209267895449	    1.16196980202575	    1.01692965084365	    0.59841048455469	    0.66013488994365	    0.76435147707147	    0.71017847085637	    1.30583393521603	    0.52072077512044	    0.64133721905021	    1.38362401719857	    0.66786389618841	    0.58570772076694	    1.18223139348219	    0.34088757291430	    0.74469849797673	    0.84036930059005	    0.47403026738969	    0.61644154644842	    0.99659885506017	    0.47941389847269	    0.70361496962373	    0.74333907232266	    0.40276248666857	    0.96994948174453	    0.15813362493878	    0.36405264333315	    0.69070722821560	    0.71702700875549	    0.71899999596965	    0.62304232840411	    0.38517262771728	    0.68427288847704	    0.67605518435035	    0.60342178575863	    0.69680980660968	    0.45989217780606	    0.99251399090961	    0.62819196143541	    0.65877065680892	    0.49290215362682	    0.68144728582699	    0.64681542313174	    0.97969544284392	    0.74005741387887
